<svg width="234" height="37" viewBox="0 0 234 37" xmlns="http://www.w3.org/2000/svg" xmlns:xlink="http://www.w3.org/1999/xlink"><defs><path id="a" d="M0 34.611h233.272V.244H0z"/><path id="c" d="M.054.253H8.16v34.56H.054z"/><path id="e" d="M.042.122h4.561v8.096H.043z"/><path id="g" d="M0 34.611h233.272V.244H0z"/></defs><g fill="none" fill-rule="evenodd"><g transform="translate(0 1)"><path d="M14.29 23.367c-2.356 0-4.052.252-5.088.755-1.037.503-1.555 1.31-1.555 2.417 0 .802.278 1.451.833 1.947.555.496 1.292.744 2.21.744 1.452 0 2.64-.482 3.566-1.444.925-.962 1.389-2.216 1.389-3.763v-.656h-1.356zm8.908-1.575v12.054h-6.954l-.178-3.588c-.948 1.327-2.092 2.3-3.432 2.92-1.34.62-2.959.93-4.854.93-2.37 0-4.258-.663-5.665-1.99-1.407-1.328-2.11-3.1-2.11-5.316 0-2.552 1.022-4.444 3.066-5.677 2.043-1.232 5.19-1.848 9.44-1.848h3.134v-.306c0-1.255-.49-2.217-1.467-2.888-.977-.67-2.4-1.006-4.265-1.006-.918 0-1.963.16-3.133.481-1.17.32-2.429.788-3.776 1.4l-.133-5.206a19.887 19.887 0 014.232-1.203c1.517-.263 3.187-.394 5.009-.394 3.821 0 6.624.937 8.408 2.81 1.785 1.875 2.678 4.817 2.678 8.827zM38.04 15.974c-1.363 0-2.485.583-3.366 1.75-.881 1.166-1.321 2.676-1.321 4.528 0 1.867.44 3.347 1.321 4.44.881 1.094 2.062 1.641 3.543 1.641 1.541 0 2.752-.547 3.633-1.64.88-1.094 1.321-2.611 1.321-4.55 0-1.882-.463-3.38-1.388-4.496-.925-1.116-2.173-1.673-3.743-1.673zM43.216.245h8.02v33.6h-7.198V29.23c-.904 1.619-2.081 2.851-3.532 3.697-1.452.846-3.096 1.268-4.932 1.268-3.11 0-5.624-1.115-7.542-3.346-1.918-2.232-2.877-5.177-2.877-8.838 0-3.602.937-6.471 2.81-8.607 1.873-2.137 4.38-3.205 7.52-3.205 1.644 0 3.114.317 4.41.951 1.296.635 2.402 1.586 3.32 2.855V.245z" fill="#FEFEFE"/><mask id="b" fill="#fff"><use xlink:href="#a"/></mask><path fill="#FEFEFE" mask="url(#b)" d="M54.548 33.845h8.02V.245h-8.02zM81.675 19.999c-.163-1.546-.666-2.76-1.51-3.642-.844-.883-1.919-1.324-3.222-1.324-1.288 0-2.347.441-3.176 1.324-.83.882-1.333 2.096-1.511 3.642h9.42zm7.087 2.734v1.925H72.345c.162 1.502.822 2.662 1.977 3.478 1.155.817 2.71 1.225 4.665 1.225 1.17 0 2.407-.16 3.71-.481a21.987 21.987 0 004.021-1.444v5.644a23.378 23.378 0 01-4.076 1.05c-1.415.233-2.892.35-4.432.35-4.266 0-7.598-1.108-9.997-3.325-2.4-2.217-3.6-5.294-3.6-9.231 0-3.588 1.108-6.439 3.322-8.553 2.214-2.115 5.202-3.172 8.964-3.172 3.791 0 6.716 1.086 8.775 3.26 2.058 2.172 3.088 5.264 3.088 9.274zM107.661 10.461l-.422 6.803a5.142 5.142 0 00-1.088-.295 8.775 8.775 0 00-1.4-.099c-1.91 0-3.351.606-4.321 1.816-.97 1.21-1.455 2.99-1.455 5.338v9.821h-8.02V10.811h7.153v4.397c.815-1.706 1.808-2.967 2.978-3.784 1.17-.817 2.554-1.225 4.154-1.225.414 0 1.17.08 2.266.24l.155.022zM7.643 26.543c0 1.568 1.184 2.688 3.049 2.688 2.82 0 4.96-2.016 4.96-5.197v-.672h-1.366c-4.504 0-6.643.851-6.643 3.18zm15.561 7.302h-6.962l-.181-3.584c-1.957 2.733-4.595 3.853-8.28 3.853C3.002 34.114 0 31.202 0 26.812c0-5.152 4.095-7.527 12.512-7.527h3.14v-.313c0-2.51-2.003-3.898-5.733-3.898-1.82 0-4.186.627-6.916 1.882l-.137-5.198c2.685-1.12 5.733-1.613 9.236-1.613 7.735 0 11.102 3.719 11.102 11.65v12.05zM33.351 22.242c0 3.808 1.956 6.093 4.868 6.093 3.049 0 4.96-2.285 4.96-6.183 0-3.853-2.048-6.182-5.141-6.182-2.594 0-4.687 2.42-4.687 6.272zM51.231.244v33.602h-7.188V29.23c-1.82 3.226-4.777 4.973-8.462 4.973-6.143 0-10.42-4.794-10.42-12.186 0-7.258 4.096-11.828 10.329-11.828 3.276 0 5.869 1.255 7.734 3.809V.244h8.008z"/><path fill="#FEFEFE" mask="url(#b)" d="M54.554 33.846h8.005V.246h-8.005z"/></g><g transform="translate(55 1)"><mask id="d" fill="#fff"><use xlink:href="#c"/></mask><path fill="#FEFEFE" mask="url(#d)" d="M.05 34.812h8.11V.252H.05z"/></g><g transform="translate(0 1)"><path d="M140.927 12.718a4.581 4.581 0 00-2.038-.467c-1.978 0-3.27 1.284-3.27 3.232 0 1.902 1.28 3.15 3.282 3.15.474 0 .9-.082 1.304-.234v-2.46h-1.719v-.888h2.832v4.06c-.758.28-1.6.42-2.512.42-2.725 0-4.395-1.587-4.395-4.071 0-2.485 1.706-4.095 4.419-4.095.782 0 1.54.14 2.263.396l-.166.957zM150.287 15.028h.889c1.173 0 1.836-.548 1.836-1.4 0-.945-.604-1.353-1.872-1.353h-.853v2.753zm1.078-3.628c1.872 0 2.82.7 2.82 2.076 0 1.015-.628 1.727-1.789 1.972.593.152.817.525 1.078 1.143l1.245 2.905h-1.233l-1.078-2.648c-.296-.712-.699-.933-1.457-.933h-.664v3.581h-1.137V11.4h2.215zM163.19 16.51h3.21l-1.575-4.118-1.635 4.118zm2.358-5.11l3.222 8.096h-1.244l-.794-2.076h-3.91l-.793 2.076h-1.161l3.282-8.096h1.398zM176.732 18.551h.936c2.073 0 3.258-1.166 3.258-3.138 0-2.03-1.114-3.103-3.246-3.103h-.948v6.241zm.77-7.151c3.08 0 4.633 1.365 4.633 4.071 0 2.544-1.635 4.025-4.656 4.025h-1.896V11.4h1.919zM190.712 11.4v4.771c0 1.715.617 2.544 1.943 2.544 1.316 0 2.003-.887 2.003-2.649V11.4h1.066v4.69c0 2.368-1.03 3.558-3.104 3.558-2.002 0-3.057-1.167-3.057-3.442V11.4h1.15zM204.862 16.51h3.211l-1.576-4.118-1.635 4.118zm2.358-5.11l3.222 8.096h-1.244l-.793-2.076h-3.91l-.794 2.076h-1.161l3.282-8.096h1.398zM221.662 11.4v.945h-2.298v7.151h-1.161v-7.151h-2.299V11.4z" fill="#FEFEFE"/><g transform="translate(228.668 11.278)"><mask id="f" fill="#fff"><use xlink:href="#e"/></mask><path fill="#FEFEFE" mask="url(#f)" d="M4.497.122v.875H1.19v2.567H4.32v.91H1.19v2.81h3.413v.934H.042V.122z"/></g><path d="M138.925 27.3a3.668 3.668 0 00-1.623-.362c-1.019 0-1.588.397-1.588 1.027 0 .63.557.98 1.505 1.493 1.374.747 2.144 1.377 2.144 2.439 0 1.365-1.114 2.356-2.737 2.356-.794 0-1.504-.128-2.108-.361l.118-1.085c.663.338 1.291.513 1.907.513.996 0 1.6-.49 1.6-1.167 0-.921-.841-1.271-2.168-2.03-.9-.513-1.41-1.283-1.41-2.03 0-1.225.995-2.053 2.725-2.053.64 0 1.22.093 1.753.268l-.118.992zM152.799 27.37a4.727 4.727 0 00-1.848-.385c-1.967 0-3.223 1.213-3.223 3.15 0 1.948 1.232 3.138 3.234 3.138.628 0 1.233-.117 1.813-.35l.036 1.015c-.569.187-1.22.28-1.943.28-2.714 0-4.348-1.563-4.348-4.025 0-2.508 1.706-4.118 4.383-4.118.747 0 1.398.117 1.943.315l-.047.98zM161.247 26.098v3.43h3.732v-3.43h1.149v8.097h-1.15V30.45h-3.731v3.745h-1.15v-8.097zM174.872 30.135c0 2.03 1.03 3.278 2.535 3.278 1.505 0 2.548-1.248 2.548-3.278 0-2.03-1.043-3.29-2.548-3.29-1.504 0-2.535 1.26-2.535 3.29m6.267.012c0 2.625-1.445 4.2-3.732 4.2-2.275 0-3.732-1.575-3.732-4.2s1.457-4.2 3.732-4.2c2.275 0 3.732 1.575 3.732 4.2M189.48 30.135c0 2.03 1.031 3.278 2.536 3.278 1.504 0 2.547-1.248 2.547-3.278 0-2.03-1.043-3.29-2.547-3.29-1.505 0-2.536 1.26-2.536 3.29m6.267.012c0 2.625-1.445 4.2-3.731 4.2-2.275 0-3.732-1.575-3.732-4.2s1.457-4.2 3.732-4.2c2.274 0 3.731 1.575 3.731 4.2M204.457 26.098v7.152h3.281v.945h-4.43v-8.097z" fill="#FEFEFE"/><mask id="h" fill="#fff"><use xlink:href="#g"/></mask><path fill="#FEFEFE" mask="url(#h)" d="M120.256 34.611h.988V10.5h-.988z"/></g></g></svg>